<svg xmlns="http://www.w3.org/2000/svg" xmlns:xlink="http://www.w3.org/1999/xlink">
    <defs>
        <symbol id="ic-paging-first" width="13" height="12" viewBox="0 0 13 12" fill="none" xmlns="http://www.w3.org/2000/svg"><path d="M0.178639 5.54639C-0.0595463 5.79381 -0.0595463 6.20619 0.178639 6.45361L5.31285 11.8144C5.5775 12.0619 5.97448 12.0619 6.21267 11.8144L6.82136 11.1821C7.05955 10.9347 7.05955 10.5223 6.82136 10.2474L2.74575 5.98625L6.82136 1.75258C7.05955 1.47766 7.05955 1.06529 6.82136 0.817869L6.21267 0.185567C5.97448 -0.0618557 5.5775 -0.0618557 5.31285 0.185567L0.178639 5.54639Z" fill="currentColor"></path><path d="M6.17864 5.54639C5.94045 5.79381 5.94045 6.20619 6.17864 6.45361L11.3129 11.8144C11.5775 12.0619 11.9745 12.0619 12.2127 11.8144L12.8214 11.1821C13.0595 10.9347 13.0595 10.5223 12.8214 10.2474L8.74575 5.98625L12.8214 1.75258C13.0595 1.47766 13.0595 1.06529 12.8214 0.817869L12.2127 0.185567C11.9745 -0.0618557 11.5775 -0.0618557 11.3129 0.185567L6.17864 5.54639Z" fill="currentColor"></path></symbol>
        <symbol id="ic-paging-prev" width="7" height="12" viewBox="0 0 7 12" fill="none" xmlns="http://www.w3.org/2000/svg"><path d="M0.178639 5.54639C-0.0595463 5.79381 -0.0595463 6.20619 0.178639 6.45361L5.31285 11.8144C5.5775 12.0619 5.97448 12.0619 6.21267 11.8144L6.82136 11.1821C7.05955 10.9347 7.05955 10.5223 6.82136 10.2474L2.74575 5.98625L6.82136 1.75258C7.05955 1.47766 7.05955 1.06529 6.82136 0.817869L6.21267 0.185567C5.97448 -0.0618557 5.5775 -0.0618557 5.31285 0.185567L0.178639 5.54639Z" fill="currentColor"></path></symbol>
        <symbol id="ic-paging-next" width="7" height="12" viewBox="0 0 7 12" fill="none" xmlns="http://www.w3.org/2000/svg"><path d="M6.82136 6.45361C7.05955 6.20619 7.05955 5.79381 6.82136 5.54639L1.68715 0.185566C1.4225 -0.0618568 1.02552 -0.0618568 0.787335 0.185566L0.17864 0.817869C-0.0595455 1.06529 -0.0595456 1.47766 0.17864 1.75258L4.25425 6.01375L0.178639 10.2474C-0.0595463 10.5223 -0.0595464 10.9347 0.178639 11.1821L0.787334 11.8144C1.02552 12.0619 1.4225 12.0619 1.68715 11.8144L6.82136 6.45361Z" fill="currentColor"></path></symbol>
        <symbol id="ic-paging-last" width="13" height="12" viewBox="0 0 13 12" fill="none" xmlns="http://www.w3.org/2000/svg"><path d="M12.8214 6.45361C13.0595 6.20619 13.0595 5.79381 12.8214 5.54639L7.68715 0.185566C7.4225 -0.0618564 7.02552 -0.0618565 6.78734 0.185566L6.17864 0.817869C5.94045 1.06529 5.94045 1.47766 6.17864 1.75258L10.2543 6.01375L6.17864 10.2474C5.94045 10.5223 5.94045 10.9347 6.17864 11.1821L6.78733 11.8144C7.02552 12.0619 7.4225 12.0619 7.68715 11.8144L12.8214 6.45361Z" fill="currentColor"></path><path d="M6.82136 6.45361C7.05955 6.20619 7.05955 5.79381 6.82136 5.54639L1.68715 0.185566C1.4225 -0.0618564 1.02552 -0.0618565 0.787336 0.185566L0.17864 0.817869C-0.0595453 1.06529 -0.0595453 1.47766 0.17864 1.75258L4.25425 6.01375L0.178639 10.2474C-0.0595461 10.5223 -0.0595461 10.9347 0.178639 11.1821L0.787335 11.8144C1.02552 12.0619 1.4225 12.0619 1.68715 11.8144L6.82136 6.45361Z" fill="currentColor"></path></symbol>
        <symbol id="ic-plus" width="24" height="24" viewBox="0 0 24 24" fill="none" xmlns="http://www.w3.org/2000/svg"><path d="M18 13H13V18C13 18.55 12.55 19 12 19C11.45 19 11 18.55 11 18V13H6C5.45 13 5 12.55 5 12C5 11.45 5.45 11 6 11H11V6C11 5.45 11.45 5 12 5C12.55 5 13 5.45 13 6V11H18C18.55 11 19 11.45 19 12C19 12.55 18.55 13 18 13Z" fill="currentColor"></path></symbol>
    </defs>
</svg>
