<svg width="16" height="16" viewBox="0 0 24 24" fill="none"
  xmlns="http://www.w3.org/2000/svg">
  <path d="M12.4135 6.96654C12.4135 7.20586 12.2195 7.39987 11.9802 7.39987C11.7409 7.39987 11.5469 7.20586 11.5469 6.96654C11.5469 6.72721 11.7409 6.5332 11.9802 6.5332C12.2195 6.5332 12.4135 6.72721 12.4135 6.96654Z" fill="#5F5E5E" stroke="#5F5E5E"></path>
  <path d="M12.1668 16.6671V17.1671H12.6668H14.0002C14.0444 17.1671 14.0868 17.1846 14.118 17.2159C14.1493 17.2471 14.1668 17.2895 14.1668 17.3337C14.1668 17.3779 14.1493 17.4203 14.118 17.4516C14.0868 17.4828 14.0444 17.5004 14.0002 17.5004H10.0002C9.95596 17.5004 9.91357 17.4828 9.88231 17.4516C9.85106 17.4203 9.8335 17.3779 9.8335 17.3337C9.8335 17.2895 9.85106 17.2471 9.88231 17.2159C9.91357 17.1846 9.95596 17.1671 10.0002 17.1671H11.3335H11.8335V16.6671V10.7337V10.2337H11.3335H10.6668C10.6226 10.2337 10.5802 10.2162 10.549 10.1849L10.2347 10.4992L10.549 10.1849C10.5177 10.1537 10.5002 10.1113 10.5002 10.0671C10.5002 10.0229 10.5177 9.98046 10.549 9.94921C10.5802 9.91795 10.6226 9.90039 10.6668 9.90039H12.1668V16.6671Z" fill="#5F5E5E" stroke="#5F5E5E"></path>
  <path d="M12.0002 22.1663C9.98939 22.1663 8.02377 21.5701 6.35187 20.453C4.67997 19.3358 3.37688 17.748 2.60739 15.8903C1.8379 14.0326 1.63657 11.9884 2.02885 10.0163C2.42113 8.04412 3.38941 6.23259 4.81125 4.81076C6.23308 3.38893 8.04461 2.42065 10.0167 2.02836C11.9889 1.63608 14.0331 1.83741 15.8908 2.6069C17.7485 3.37639 19.3363 4.67948 20.4534 6.35138C21.5706 8.02328 22.1668 9.9889 22.1668 11.9997C22.1668 14.696 21.0957 17.282 19.1891 19.1886C17.2825 21.0952 14.6965 22.1663 12.0002 22.1663ZM12.0002 2.16635C10.0553 2.16635 8.15414 2.74306 6.53706 3.82356C4.91998 4.90406 3.65961 6.43982 2.91535 8.23663C2.17109 10.0334 1.97636 12.0106 2.35578 13.9181C2.7352 15.8255 3.67173 17.5777 5.04695 18.9529C6.42217 20.3281 8.1743 21.2646 10.0818 21.6441C11.9893 22.0235 13.9664 21.8288 15.7632 21.0845C17.56 20.3402 19.0958 19.0799 20.1763 17.4628C21.2568 15.8457 21.8335 13.9445 21.8335 11.9997C21.8335 9.39172 20.7975 6.89057 18.9534 5.04646C17.1093 3.20235 14.6081 2.16635 12.0002 2.16635Z" fill="#5F5E5E" stroke="#5F5E5E"></path>
</svg>