<svg width="24" height="24" viewBox="0 0 24 24" fill="none"
  xmlns="http://www.w3.org/2000/svg">
  <path d="M11.9999 18.2597C12.4896 18.2597 12.8866 17.8627 12.8866 17.373C12.8866 16.8833 12.4896 16.4863 11.9999 16.4863C11.5103 16.4863 11.1133 16.8833 11.1133 17.373C11.1133 17.8627 11.5103 18.2597 11.9999 18.2597Z" fill="#ED3636"></path>
  <path d="M11.9997 15.0736C11.8229 15.0736 11.6533 15.0033 11.5283 14.8783C11.4032 14.7533 11.333 14.5837 11.333 14.4069V6.4069C11.333 6.23009 11.4032 6.06052 11.5283 5.9355C11.6533 5.81047 11.8229 5.74023 11.9997 5.74023C12.1765 5.74023 12.3461 5.81047 12.4711 5.9355C12.5961 6.06052 12.6663 6.23009 12.6663 6.4069V14.4069C12.6663 14.5837 12.5961 14.7533 12.4711 14.8783C12.3461 15.0033 12.1765 15.0736 11.9997 15.0736Z" fill="#ED3636"></path>
  <path d="M10.041 1.12111C10.2263 0.783877 10.4988 0.502631 10.83 0.306782C11.1612 0.110932 11.539 0.00767636 11.9237 0.00781263C12.3085 0.00794891 12.6862 0.111473 13.0173 0.307556C13.3483 0.50364 13.6206 0.785079 13.8057 1.12244L23.0657 18.1624C23.2433 18.4894 23.3329 18.8569 23.3256 19.2289C23.3184 19.6008 23.2146 19.9646 23.0244 20.2844C22.8342 20.6041 22.5642 20.869 22.2408 21.053C21.9174 21.237 21.5517 21.3337 21.1797 21.3338H2.68102C2.30477 21.3422 1.93292 21.2515 1.60275 21.0709C1.27258 20.8903 0.995702 20.6261 0.799866 20.3047C0.60403 19.9833 0.496123 19.6161 0.486964 19.2399C0.477805 18.8637 0.567717 18.4916 0.747683 18.1611L10.041 1.12111ZM1.91968 18.7991C1.851 18.9254 1.817 19.0676 1.82116 19.2113C1.82533 19.355 1.8675 19.495 1.94338 19.6171C2.01926 19.7392 2.12614 19.839 2.25314 19.9063C2.38014 19.9736 2.52272 20.0061 2.66635 20.0004H21.1797C21.3207 20.0004 21.4592 19.9636 21.5817 19.8939C21.7042 19.8241 21.8065 19.7237 21.8785 19.6025C21.9505 19.4813 21.9898 19.3434 21.9924 19.2025C21.9951 19.0615 21.9611 18.9223 21.8937 18.7984L12.6357 1.76177C12.5655 1.63429 12.4624 1.52797 12.3372 1.4539C12.2119 1.37983 12.0691 1.34072 11.9235 1.34065C11.778 1.34058 11.6352 1.37956 11.5098 1.45351C11.3845 1.52747 11.2813 1.63369 11.211 1.76111L1.91902 18.7991H1.91968Z" fill="#ED3636"></path>
</svg>