<svg class="zoomIn" width="24" height="24" viewBox="0 0 24 24" fill="none"
  xmlns="http://www.w3.org/2000/svg">
  <circle cx="12" cy="12" r="7.25" stroke="black" stroke-width="1.5"></circle>
  <path d="M16 13H13V16C13 16.55 12.55 17 12 17C11.45 17 11 16.55 11 16V13H8C7.45 13 7 12.55 7 12C7 11.45 7.45 11 8 11H11V8C11 7.45 11.45 7 12 7C12.55 7 13 7.45 13 8V11H16C16.55 11 17 11.45 17 12C17 12.55 16.55 13 16 13Z" fill="black"></path>
  <path d="M16.707 16.7071C17.0975 16.3166 17.5497 16.1357 17.7171 16.303L21.3537 19.9396C21.521 20.107 21.3401 20.5592 20.9496 20.9497C20.5591 21.3403 20.1068 21.5212 19.9394 21.3538L16.3029 17.7173C16.1355 17.5499 16.3164 17.0976 16.707 16.7071Z" fill="black"></path>
</svg>
