<svg class="zoomOut" width="24" height="24" viewBox="0 0 24 24" fill="none"
  xmlns="http://www.w3.org/2000/svg">
  <circle cx="12" cy="12" r="7.25" stroke="black" stroke-width="1.5"></circle>
  <path d="M16.707 16.7071C17.0975 16.3166 17.5497 16.1357 17.7171 16.303L21.3537 19.9396C21.521 20.107 21.3401 20.5592 20.9496 20.9497C20.5591 21.3403 20.1068 21.5212 19.9394 21.3538L16.3029 17.7173C16.1355 17.5499 16.3164 17.0976 16.707 16.7071Z" fill="black"></path>
  <path d="M7 12C7 12.55 7.45 13 8 13H16C16.55 13 17 12.55 17 12C17 11.45 16.55 11 16 11H8C7.45 11 7 11.45 7 12Z" fill="black"></path>
</svg>